HIERARCHY
ROOT pelvis
{
  OFFSET 0 100 0
  CHANNELS 6 Xposition Yposition Zposition Zrotation Xrotation Yrotation
  JOINT pelvis_right_femur
  {
    OFFSET -10.78128 -3.44521 -0.5502486
    CHANNELS 3 Zrotation Xrotation Yrotation
    JOINT right_femur_tibia
    {
      OFFSET -0.8047443 -44.0398 -0.1307829
      CHANNELS 3 Zrotation Xrotation Yrotation
      JOINT right_tibia_foot
      {
        OFFSET 3.006224 -47.83518 -5
        CHANNELS 3 Zrotation Xrotation Yrotation
        End Site
        {
          OFFSET 0 -5 15
        }
      }
    }
  }
  JOINT pelvis_left_femur
  {
    OFFSET 10.78128 -3.44521 -0.5502486
    CHANNELS 3 Zrotation Xrotation Yrotation
    JOINT left_femur_tibia
    {
      OFFSET 0.8047443 -44.0398 -0.1307829
      CHANNELS 3 Zrotation Xrotation Yrotation
      JOINT left_tibia_foot
      {
        OFFSET -4.370144 -48.10324 -4.275266
        CHANNELS 3 Zrotation Xrotation Yrotation
        End Site
        {
          OFFSET 0 -5 15
        }
      }
    }
  }
  JOINT pelvis_spine1
  {
    OFFSET 0 6.468898 -3.129235
    CHANNELS 3 Zrotation Xrotation Yrotation
    JOINT spine1
    {
      OFFSET 0 23.15396 4.99043
      CHANNELS 3 Zrotation Xrotation Yrotation
      JOINT spine2
      {
        OFFSET 0 20.79997 -5.064912
        CHANNELS 3 Zrotation Xrotation Yrotation
        JOINT neck
        {
          OFFSET 0 14.38658 9.616178
          CHANNELS 3 Zrotation Xrotation Yrotation
          End Site
          {
            OFFSET 0 20 0
          }
        }
      }
      JOINT right_manubrium
      {
        OFFSET -5.722621 16.35077 3.967754
        CHANNELS 3 Zrotation Xrotation Yrotation
        JOINT right_clavicle
        {
          OFFSET -13.16364 1.694482 -4.693211
          CHANNELS 3 Zrotation Xrotation Yrotation
          JOINT right_humerus
          {
            OFFSET -28.5034 -0.3100689 -2.792744
            CHANNELS 3 Zrotation Xrotation Yrotation
            JOINT right_radius
            {
              OFFSET -25.15693 0.02248979 -1.271978
              CHANNELS 3 Zrotation Xrotation Yrotation
              End Site
              {
                OFFSET -15 0 0
              }
            }
          }
        }
      }
      JOINT left_manubrium
      {
        OFFSET 5.722621 16.35077 3.967754
        CHANNELS 3 Zrotation Xrotation Yrotation
        JOINT left_clavicle
        {
          OFFSET 13.16364 1.694482 -4.693211
          CHANNELS 3 Zrotation Xrotation Yrotation
          JOINT left_humerus
          {
            OFFSET 29.39168 -1.063119 -2.237045
            CHANNELS 3 Zrotation Xrotation Yrotation
            JOINT left_radius
            {
              OFFSET 24.59957 -0.9528479 0.9047498
              CHANNELS 3 Zrotation Xrotation Yrotation
              End Site
              {
                OFFSET 15 -0 -0
              }
            }
          }
        }
      }
    }
  }
}
MOTION
Frames: 9
Frame Time: 0.0416666666667
90.08611 114.4762 3182.014 -0.7142062 -7.003099 -6.444133 5.238426 14.02874 3.616326 -0 5.994468 -0 -2.418091 -14.10281 -1.989767 3.417552 -24.94041 -1.122248 -0 32.20685 -0 -5.539896 -5.072819 17.4068 -0.01085905 0.6427704 8.264383 -0.1065716 11.71559 -3.903032 1.837909 21.43136 3.790114 1.590682 -17.86263 5.398654 0.1878084 -23.4416 12.19118 82.95306 21.93783 -7.80331 -0 0 23.50894 -23.82565 12.40443 14.52782 3.980834 -18.23596 -4.105498 -93.05758 20.18746 25.95588 0 0 -13.20598 -0.164375 8.14747 13.09149
90.14729 113.256 3188.472 -0.5728151 -6.722423 -7.278989 4.595862 16.99348 3.180251 -0 5.343063 -0 -1.752846 -15.09835 -1.230596 3.919195 -27.7901 -0.564937 -0 25.20371 -0 -5.207125 -5.680066 18.00375 -0.2869018 0.6367647 8.570977 -0.385736 11.2153 -3.390805 1.83465 21.44719 3.79768 1.507566 -17.67505 5.446238 -0.2057609 -24.09104 11.88203 81.93687 21.60272 -5.79232 -0 0 25.20064 -24.66894 11.95251 15.43515 4.253951 -17.57911 -3.68842 -93.57449 20.04307 26.87891 0 0 -11.98535 -0.3487805 7.892891 13.24053
90.21203 111.8574 3195.091 -0.400844 -6.365556 -8.022905 3.981438 18.87123 2.918835 -0 6.07324 -0 -1.210787 -15.29124 -0.6675223 3.822073 -29.28716 -0.5726179 -0 20.70901 -0 -5.115353 -6.246146 18.46727 -0.6202396 0.6346061 8.697912 -0.5639451 10.61947 -2.988285 1.840512 21.57448 3.94392 1.5536 -17.59557 5.577365 -0.3156997 -24.09872 11.56921 81.09707 21.76428 -4.418013 -0 0 25.87222 -25.02522 11.35656 15.88913 4.485212 -16.93768 -3.21521 -93.87422 20.24725 27.12352 0 0 -10.99744 -0.4566719 7.615551 13.37415
90.25127 110.4883 3201.864 -0.2041224 -5.971154 -8.653103 3.400529 19.82283 2.820199 -0 8.240822 -0 -0.7625926 -14.63417 -0.260551 3.205236 -29.74646 -1.050882 -0 18.46256 -0 -5.160508 -6.751798 18.81061 -0.9838852 0.6300673 8.710306 -0.6786532 10.03477 -2.678028 1.844598 21.75348 4.21339 1.719744 -17.63298 5.766892 -0.1673819 -23.64601 11.30874 80.4161 22.30015 -3.583822 -0 0 25.76284 -25.0473 10.68308 16.00038 4.65945 -16.34326 -2.744431 -94.02261 20.62928 26.92768 0 0 -10.202 -0.4557446 7.310651 13.45841
90.2592 109.3157 3208.782 0.01394023 -5.614435 -9.138085 2.831488 20.05455 2.842228 -0 11.91812 -0 -0.3861 -13.1425 0.01147881 2.181325 -29.39743 -1.881018 -0 17.81978 -0 -5.192206 -7.217944 19.07352 -1.360628 0.5952767 8.651917 -0.7776163 9.551798 -2.443334 1.846188 21.94313 4.566711 1.96807 -17.75974 5.998097 0.1516908 -22.93682 11.11516 79.94672 23.01121 -3.18835 -0 0 25.13844 -24.9065 9.98987 15.88938 4.773287 -15.82691 -2.33496 -94.05554 21.01411 26.49606 0 0 -9.524854 -0.3011981 7.016507 13.42873
90.2494 108.4753 3215.825 0.2447757 -5.380448 -9.435782 2.246481 19.69557 2.94762 -0 17.22725 -0 -0.08416009 -10.86733 0.1321566 0.847164 -28.31235 -2.974965 -0 18.13651 -0 -5.061915 -7.668516 19.28848 -1.73979 0.495984 8.533862 -0.8963841 9.244011 -2.287071 1.848587 22.11975 4.956407 2.249224 -17.93739 6.260435 0.5540551 -22.13776 10.98595 79.7791 23.72093 -3.181488 -0 0 24.20351 -24.72277 9.340747 15.64213 4.820082 -15.42197 -2.040689 -93.97784 21.26985 25.96797 0 0 -8.893396 0.04666677 6.793436 13.22086
90.24887 108.0813 3222.954 0.471208 -5.346504 -9.495808 1.629024 18.7428 3.110836 -0 24.23694 -0 0.1190412 -7.909739 0.04871002 -0.7029908 -26.4184 -4.262181 -0 18.91291 -0 -4.657639 -8.118921 19.45472 -2.111073 0.3085535 8.33513 -1.046759 9.169056 -2.238442 1.85366 22.26965 5.333869 2.511062 -18.12746 6.542637 0.9793895 -21.36341 10.91725 80.01036 24.31228 -3.573643 -0 0 23.08251 -24.5493 8.817692 15.3067 4.785626 -15.16957 -1.912486 -93.76288 21.32444 25.40948 0 0 -8.273108 0.6028237 6.701497 12.79738
90.29054 108.2186 3230.095 0.6686762 -5.568313 -9.267643 0.9878349 17.06072 3.305229 -0 32.74706 -0 0.1941877 -4.47216 -0.313421 -2.336879 -23.56198 -5.646851 -0 19.77177 -0 -3.937298 -8.58643 19.52297 -2.459122 0.03751003 8.009004 -1.210923 9.360267 -2.349503 1.858799 22.38365 5.651112 2.701857 -18.29045 6.825505 1.393932 -20.68041 10.90654 80.71457 24.72539 -4.412293 -0 0 21.83722 -24.38521 8.521555 14.90985 4.654364 -15.11977 -1.998506 -93.35325 21.17537 24.80854 0 0 -7.70316 1.332747 6.78047 12.17459
90.40305 108.9142 3237.134 0.8111463 -6.056645 -8.716781 0.3673554 14.41358 3.483413 -0 42.01231 -0 0.1260554 -0.9150925 -1.023628 -3.860832 -19.60817 -6.979906 -0 20.3887 -0 -2.96711 -9.116146 19.39232 -2.760552 -0.2680968 7.496164 -1.337806 9.804079 -2.682483 1.855672 22.45476 5.866104 2.776924 -18.38523 7.078264 1.779784 -20.10913 10.94791 81.90361 24.94722 -5.742436 -0 0 20.48873 -24.19468 8.553672 14.47485 4.425194 -15.32545 -2.335288 -92.66757 20.90091 24.06475 0 0 -7.334113 2.128567 7.031212 11.44701
